<svg xmlns="http://www.w3.org/2000/svg" xmlns:xlink="http://www.w3.org/1999/xlink" xmlns:lucid="lucid" width="1700" height="1212"><g transform="translate(-60 -46.99999999994924)" lucid:page-tab-id="HWEp-vi-RSFO"><path d="M600 248h300v413H600z" stroke="#333" stroke-width="2" fill="#fff"/><path d="M600 285.6h300M600 602.9h300" stroke="#333" stroke-width="2" fill="none"/><use xlink:href="#a" transform="matrix(1,0,0,1,608,256) translate(122.025 14.6)"/><use xlink:href="#b" transform="matrix(1,0,0,1,612,293.6) translate(0 25.00000000000002)"/><use xlink:href="#c" transform="matrix(1,0,0,1,612,293.6) translate(15.5 25.00000000000002)"/><use xlink:href="#d" transform="matrix(1,0,0,1,612,293.6) translate(43.45 25.00000000000002)"/><use xlink:href="#b" transform="matrix(1,0,0,1,612,293.6) translate(0 46.60000000000002)"/><use xlink:href="#e" transform="matrix(1,0,0,1,612,293.6) translate(15.5 46.60000000000002)"/><use xlink:href="#f" transform="matrix(1,0,0,1,612,293.6) translate(69.35 46.60000000000002)"/><use xlink:href="#b" transform="matrix(1,0,0,1,612,293.6) translate(0 68.20000000000003)"/><use xlink:href="#g" transform="matrix(1,0,0,1,612,293.6) translate(15.5 68.20000000000003)"/><use xlink:href="#f" transform="matrix(1,0,0,1,612,293.6) translate(73.4 68.20000000000003)"/><use xlink:href="#b" transform="matrix(1,0,0,1,612,293.6) translate(0 89.80000000000004)"/><use xlink:href="#h" transform="matrix(1,0,0,1,612,293.6) translate(15.5 89.80000000000004)"/><use xlink:href="#f" transform="matrix(1,0,0,1,612,293.6) translate(100.3 89.80000000000004)"/><use xlink:href="#b" transform="matrix(1,0,0,1,612,293.6) translate(0 111.40000000000003)"/><use xlink:href="#i" transform="matrix(1,0,0,1,612,293.6) translate(15.5 111.40000000000003)"/><use xlink:href="#j" transform="matrix(1,0,0,1,612,293.6) translate(91.4 111.40000000000003)"/><use xlink:href="#b" transform="matrix(1,0,0,1,612,293.6) translate(0 133.00000000000003)"/><use xlink:href="#k" transform="matrix(1,0,0,1,612,293.6) translate(15.5 133.00000000000003)"/><use xlink:href="#j" transform="matrix(1,0,0,1,612,293.6) translate(103.45 133.00000000000003)"/><use xlink:href="#b" transform="matrix(1,0,0,1,612,293.6) translate(0 154.60000000000002)"/><use xlink:href="#l" transform="matrix(1,0,0,1,612,293.6) translate(15.5 154.60000000000002)"/><use xlink:href="#f" transform="matrix(1,0,0,1,612,293.6) translate(77.1 154.60000000000002)"/><use xlink:href="#b" transform="matrix(1,0,0,1,612,293.6) translate(0 176.20000000000002)"/><use xlink:href="#m" transform="matrix(1,0,0,1,612,293.6) translate(15.5 176.20000000000002)"/><use xlink:href="#d" transform="matrix(1,0,0,1,612,293.6) translate(62.400000000000006 176.20000000000002)"/><use xlink:href="#b" transform="matrix(1,0,0,1,612,293.6) translate(0 197.8)"/><use xlink:href="#n" transform="matrix(1,0,0,1,612,293.6) translate(15.5 197.8)"/><use xlink:href="#f" transform="matrix(1,0,0,1,612,293.6) translate(132.25 197.8)"/><use xlink:href="#b" transform="matrix(1,0,0,1,612,293.6) translate(0 219.4)"/><use xlink:href="#o" transform="matrix(1,0,0,1,612,293.6) translate(15.5 219.4)"/><use xlink:href="#p" transform="matrix(1,0,0,1,612,293.6) translate(124.4 219.4)"/><use xlink:href="#b" transform="matrix(1,0,0,1,612,293.6) translate(0 241)"/><use xlink:href="#q" transform="matrix(1,0,0,1,612,293.6) translate(15.5 241)"/><use xlink:href="#f" transform="matrix(1,0,0,1,612,293.6) translate(130.45 241)"/><use xlink:href="#b" transform="matrix(1,0,0,1,612,293.6) translate(0 262.59999999999997)"/><use xlink:href="#r" transform="matrix(1,0,0,1,612,293.6) translate(15.5 262.59999999999997)"/><use xlink:href="#p" transform="matrix(1,0,0,1,612,293.6) translate(89.4 262.59999999999997)"/><use xlink:href="#b" transform="matrix(1,0,0,1,612,293.6) translate(0 284.2)"/><use xlink:href="#s" transform="matrix(1,0,0,1,612,293.6) translate(15.5 284.2)"/><use xlink:href="#t" transform="matrix(1,0,0,1,612,293.6) translate(93.35000000000001 284.2)"/><path d="M453.15 75c0-4.42 3.58-8 8-8h836.75c4.4 0 8 3.58 8 8v25.16c0 4.4-3.6 8-8 8H461.15c-4.42 0-8-3.6-8-8z" stroke="#000" stroke-opacity="0" stroke-width="2" fill="#fff" fill-opacity="0"/><use xlink:href="#u" transform="matrix(1,0,0,1,457.1465527853429,70.99999999994924) translate(320.7025925925926 23.657777777777778)"/><use xlink:href="#v" transform="matrix(1,0,0,1,457.1465527853429,70.99999999994924) translate(412.40753086419755 23.657777777777778)"/><use xlink:href="#w" transform="matrix(1,0,0,1,457.1465527853429,70.99999999994924) translate(475.77790123456793 23.657777777777778)"/><path d="M729.63 106.8H1039M729.65 106.8h-1.02M1038.96 106.8h1.03" stroke="#a9afb8" stroke-width="2" fill="none"/><path d="M453.15 116.16c0-4.42 3.58-8 8-8h837.7c4.42 0 8 3.58 8 8V119c0 4.42-3.58 8-8 8h-837.7c-4.42 0-8-3.58-8-8z" stroke="#000" stroke-opacity="0" stroke-width="2" fill="#fff" fill-opacity="0"/><path d="M80 525h300v175H80z" stroke="#333" stroke-width="2" fill="#fff"/><path d="M80 562.6h300M80 642.3h300" stroke="#333" stroke-width="2" fill="none"/><use xlink:href="#x" transform="matrix(1,0,0,1,88,533) translate(122.55 14.6)"/><use xlink:href="#b" transform="matrix(1,0,0,1,92,570.6) translate(0 24.799999999999997)"/><use xlink:href="#c" transform="matrix(1,0,0,1,92,570.6) translate(15.5 24.799999999999997)"/><use xlink:href="#d" transform="matrix(1,0,0,1,92,570.6) translate(43.45 24.799999999999997)"/><use xlink:href="#b" transform="matrix(1,0,0,1,92,570.6) translate(0 46.4)"/><use xlink:href="#y" transform="matrix(1,0,0,1,92,570.6) translate(15.5 46.4)"/><use xlink:href="#z" transform="matrix(1,0,0,1,92,570.6) translate(64.45 46.4)"/><use xlink:href="#A" transform="matrix(1,0,0,1,92,570.6) translate(74.45 46.4)"/><path d="M1000 620h300v348h-300z" stroke="#333" stroke-width="2" fill="#fff"/><path d="M1000 657.6h300m-300 252.5h300" stroke="#333" stroke-width="2" fill="none"/><use xlink:href="#B" transform="matrix(1,0,0,1,1008,628) translate(114.05 14.6)"/><use xlink:href="#b" transform="matrix(1,0,0,1,1012,665.6) translate(0 24.900000000000013)"/><use xlink:href="#c" transform="matrix(1,0,0,1,1012,665.6) translate(15.5 24.900000000000013)"/><use xlink:href="#d" transform="matrix(1,0,0,1,1012,665.6) translate(43.45 24.900000000000013)"/><use xlink:href="#b" transform="matrix(1,0,0,1,1012,665.6) translate(0 46.500000000000014)"/><use xlink:href="#C" transform="matrix(1,0,0,1,1012,665.6) translate(15.5 46.500000000000014)"/><use xlink:href="#f" transform="matrix(1,0,0,1,1012,665.6) translate(58.7 46.500000000000014)"/><use xlink:href="#b" transform="matrix(1,0,0,1,1012,665.6) translate(0 68.10000000000002)"/><use xlink:href="#D" transform="matrix(1,0,0,1,1012,665.6) translate(15.5 68.10000000000002)"/><use xlink:href="#f" transform="matrix(1,0,0,1,1012,665.6) translate(86.45 68.10000000000002)"/><use xlink:href="#b" transform="matrix(1,0,0,1,1012,665.6) translate(0 89.70000000000003)"/><use xlink:href="#E" transform="matrix(1,0,0,1,1012,665.6) translate(15.5 89.70000000000003)"/><use xlink:href="#f" transform="matrix(1,0,0,1,1012,665.6) translate(88.45 89.70000000000003)"/><use xlink:href="#b" transform="matrix(1,0,0,1,1012,665.6) translate(0 111.30000000000003)"/><use xlink:href="#F" transform="matrix(1,0,0,1,1012,665.6) translate(15.5 111.30000000000003)"/><use xlink:href="#f" transform="matrix(1,0,0,1,1012,665.6) translate(157.35000000000002 111.30000000000003)"/><use xlink:href="#b" transform="matrix(1,0,0,1,1012,665.6) translate(0 132.9)"/><use xlink:href="#G" transform="matrix(1,0,0,1,1012,665.6) translate(15.5 132.9)"/><use xlink:href="#d" transform="matrix(1,0,0,1,1012,665.6) translate(141.60000000000002 132.9)"/><use xlink:href="#b" transform="matrix(1,0,0,1,1012,665.6) translate(0 154.50000000000003)"/><use xlink:href="#H" transform="matrix(1,0,0,1,1012,665.6) translate(15.5 154.50000000000003)"/><use xlink:href="#f" transform="matrix(1,0,0,1,1012,665.6) translate(61.45 154.50000000000003)"/><use xlink:href="#b" transform="matrix(1,0,0,1,1012,665.6) translate(0 176.1)"/><use xlink:href="#I" transform="matrix(1,0,0,1,1012,665.6) translate(15.5 176.1)"/><use xlink:href="#d" transform="matrix(1,0,0,1,1012,665.6) translate(157.35000000000002 176.1)"/><use xlink:href="#b" transform="matrix(1,0,0,1,1012,665.6) translate(0 197.70000000000002)"/><use xlink:href="#J" transform="matrix(1,0,0,1,1012,665.6) translate(15.5 197.70000000000002)"/><use xlink:href="#d" transform="matrix(1,0,0,1,1012,665.6) translate(118.05000000000001 197.70000000000002)"/><use xlink:href="#b" transform="matrix(1,0,0,1,1012,665.6) translate(0 219.29999999999998)"/><use xlink:href="#K" transform="matrix(1,0,0,1,1012,665.6) translate(15.5 219.29999999999998)"/><use xlink:href="#L" transform="matrix(1,0,0,1,1012,665.6) translate(76.5 219.29999999999998)"/><path d="M80 248h300v197H80z" stroke="#333" stroke-width="2" fill="#fff"/><path d="M80 285.6h300M80 386.9h300" stroke="#333" stroke-width="2" fill="none"/><g><use xlink:href="#M" transform="matrix(1,0,0,1,88,256) translate(117.6 14.6)"/></g><g><use xlink:href="#b" transform="matrix(1,0,0,1,92,293.6) translate(0 25)"/><use xlink:href="#c" transform="matrix(1,0,0,1,92,293.6) translate(15.5 25)"/><use xlink:href="#d" transform="matrix(1,0,0,1,92,293.6) translate(43.45 25)"/><use xlink:href="#b" transform="matrix(1,0,0,1,92,293.6) translate(0 46.6)"/><use xlink:href="#N" transform="matrix(1,0,0,1,92,293.6) translate(15.5 46.6)"/><use xlink:href="#f" transform="matrix(1,0,0,1,92,293.6) translate(58.35 46.6)"/><use xlink:href="#b" transform="matrix(1,0,0,1,92,293.6) translate(0 68.2)"/><use xlink:href="#O" transform="matrix(1,0,0,1,92,293.6) translate(15.5 68.2)"/><use xlink:href="#P" transform="matrix(1,0,0,1,92,293.6) translate(104.4 68.2)"/></g><path d="M381.5 612.5l6.53-.15 6.5-.4 6.02-.63 5.66-.84 5.37-1.02 5.1-1.2 4.93-1.37 4.76-1.56 4.66-1.73 4.6-1.92 4.6-2.16 4.62-2.43 4.76-2.76 4.98-3.16 5.37-3.74 6.07-4.6 7.62-6.33 40.34-36.06 6.07-4.62 5.37-3.73 4.98-3.18 4.76-2.74 4.63-2.43 4.58-2.16 4.6-1.94 4.66-1.74 4.76-1.54 4.92-1.37 5.1-1.2 5.37-1 5.65-.85 6.03-.63 6.5-.4 6.52-.14" stroke="#333" fill="none"/><path d="M381.53 613H381v-1h.5M599 511.27h-.5v-1h.5" fill="#333"/><g><use xlink:href="#Q" transform="matrix(1,0,0,1,401.12350962273547,614.8114362642729) translate(0 14.4)"/></g><g><use xlink:href="#R" transform="matrix(1,0,0,1,563.7157234915278,487.94689683782275) translate(0 14.4)"/></g><path d="M381.5 346.5l6.14.14 6.15.38 5.74.6 5.4.8 5.15.98 4.9 1.15 4.72 1.32 4.6 1.5 4.48 1.66 4.43 1.87 4.4 2.07 4.46 2.33 4.52 2.6 4.7 3 4.97 3.46 5.44 4.14 6.32 5.24 8.44 7.62 35.44 33.9 6.32 5.24 5.45 4.14 5 3.46 4.68 3 4.53 2.6 4.46 2.33 4.4 2.07 4.44 1.87 4.5 1.67 4.58 1.5 4.72 1.3 4.9 1.16 5.15.98 5.4.8 5.76.6 6.16.38 6.14.13" stroke="#333" fill="none"/><path d="M381.53 346l-.02 1h-.5v-1M599 454v1h-.5v-1" fill="#333"/><g><use xlink:href="#R" transform="matrix(1,0,0,1,398.43238041373917,352.3408112210395) translate(0 14.4)"/></g><g><use xlink:href="#R" transform="matrix(1,0,0,1,575.8962229968395,427.7145427141394) translate(0 14.4)"/></g><path d="M1180 280h300v283h-300z" stroke="#333" stroke-width="2" fill="#fff"/><path d="M1180 317.6h300m-300 187.7h300" stroke="#333" stroke-width="2" fill="none"/><g><use xlink:href="#S" transform="matrix(1,0,0,1,1188,288) translate(100.6 14.6)"/></g><g><use xlink:href="#b" transform="matrix(1,0,0,1,1192,325.6) translate(0 24.800000000000004)"/><use xlink:href="#E" transform="matrix(1,0,0,1,1192,325.6) translate(15.5 24.800000000000004)"/><use xlink:href="#f" transform="matrix(1,0,0,1,1192,325.6) translate(88.45 24.800000000000004)"/><use xlink:href="#b" transform="matrix(1,0,0,1,1192,325.6) translate(0 46.400000000000006)"/><use xlink:href="#T" transform="matrix(1,0,0,1,1192,325.6) translate(15.5 46.400000000000006)"/><use xlink:href="#U" transform="matrix(1,0,0,1,1192,325.6) translate(151.3 46.400000000000006)"/><use xlink:href="#b" transform="matrix(1,0,0,1,1192,325.6) translate(0 68.00000000000001)"/><use xlink:href="#s" transform="matrix(1,0,0,1,1192,325.6) translate(15.5 68.00000000000001)"/><use xlink:href="#V" transform="matrix(1,0,0,1,1192,325.6) translate(93.35000000000001 68.00000000000001)"/><use xlink:href="#b" transform="matrix(1,0,0,1,1192,325.6) translate(0 89.60000000000002)"/><use xlink:href="#W" transform="matrix(1,0,0,1,1192,325.6) translate(15.5 89.60000000000002)"/><use xlink:href="#U" transform="matrix(1,0,0,1,1192,325.6) translate(131.3 89.60000000000002)"/><use xlink:href="#b" transform="matrix(1,0,0,1,1192,325.6) translate(0 111.20000000000002)"/><use xlink:href="#X" transform="matrix(1,0,0,1,1192,325.6) translate(15.5 111.20000000000002)"/><use xlink:href="#f" transform="matrix(1,0,0,1,1192,325.6) translate(79.45 111.20000000000002)"/><use xlink:href="#b" transform="matrix(1,0,0,1,1192,325.6) translate(0 132.8)"/><use xlink:href="#c" transform="matrix(1,0,0,1,1192,325.6) translate(15.5 132.8)"/><use xlink:href="#d" transform="matrix(1,0,0,1,1192,325.6) translate(43.45 132.8)"/><use xlink:href="#b" transform="matrix(1,0,0,1,1192,325.6) translate(0 154.4)"/><use xlink:href="#Y" transform="matrix(1,0,0,1,1192,325.6) translate(15.5 154.4)"/><use xlink:href="#L" transform="matrix(1,0,0,1,1192,325.6) translate(78.45 154.4)"/></g><path d="M1178.5 421.5l-30.94.62-24.07 1.5-20.03 2.1-18.36 2.7-20.15 3.87-70.06 15.27-18.37 2.7-20.02 2.1-24.06 1.5-30.94.62" stroke="#333" fill="none"/><path d="M1179 422h-.5l-.03-1h.53M901.5 455h-.5v-1h.5" fill="#333"/><g><use xlink:href="#R" transform="matrix(1,0,0,1,1153.4987396719036,396.30522810014946) translate(0 14.4)"/></g><g><use xlink:href="#Z" transform="matrix(1,0,0,1,918.2622295373078,457.8946970622479) translate(0 14.4)"/></g><path d="M1329.98 564.5v.02l-.03.26-.04.26-.04.26-.06.26-.07.26-.1.27-.1.26-.1.27-.14.28-.16.3-.17.3-.2.3-.22.33-.26.34-.3.35-.33.37-.4.4-.44.4-.53.47-.62.5-.74.52-.88.58-1.07.65-1.34.72-1.65.82-2.12.95-2.8 1.1-3.8 1.32-5.4 1.62-8.25 2.1-14.46 3.04-100.8 17.24-8.26 2.1-5.4 1.62-3.8 1.32-2.78 1.1-2.13.95-1.66.82-1.33.72-1.06.65-.88.6-.74.52-.62.5-.53.45-.45.4-.4.4-.32.38-.3.35-.25.34-.22.32-.2.3-.17.3-.15.3-.13.27-.1.27-.1.27-.1.28-.07.26-.06.26-.05.26-.05.26-.03.26v.02" stroke="#333" fill="none"/><path d="M1330.5 564.52l-1-.02v-.5h1M1150.5 618.58v.42h-1v-.42" fill="#333"/><g><use xlink:href="#aa" transform="matrix(1,0,0,1,1257.686737292873,563.0954138366172) translate(0 14.4)"/></g><g><use xlink:href="#Z" transform="matrix(1,0,0,1,1213.8271415810625,598.3988486153413) translate(0 14.4)"/></g><g><use xlink:href="#ab" transform="matrix(1,0,0,1,1331.2675887233881,569.4908146702866) translate(0.004999999999999893 14.4)"/></g><path d="M998.5 794l-35.56-.72-28.27-1.76-22.97-2.4-19.06-2.8-16.07-3.06-13.72-3.2-11.84-3.3-10.3-3.35-9.06-3.36-8-3.36-7.13-3.35-6.38-3.34-5.75-3.33-5.2-3.3-4.74-3.3-4.32-3.26-3.95-3.27-3.63-3.27-3.35-3.28-3.1-3.3-2.86-3.3-2.64-3.35-2.46-3.38-2.27-3.43-2.12-3.5-1.94-3.55-1.8-3.63-1.67-3.74-1.53-3.84-1.38-3.97-1.25-4.12-1.1-4.27-.95-4.45-.8-4.67-.6-4.9-.44-5.2-.23-5.5-.02-2.38" stroke="#333" fill="none"/><path d="M999 793.5v1h-.53l.02-1M750.5 662.5l-1 .02V662h1" fill="#333"/><g><use xlink:href="#ac" transform="matrix(1,0,0,1,972.124135462376,768.1261629374225) translate(0 14.4)"/></g><g><use xlink:href="#Z" transform="matrix(1,0,0,1,716.6911435493457,672.7733333847796) translate(0 14.4)"/></g><path d="M600 900h300v219H600z" stroke="#333" stroke-width="2" fill="#fff"/><path d="M600 937.6h300m-300 122.9h300" stroke="#333" stroke-width="2" fill="none"/><g><use xlink:href="#ad" transform="matrix(1,0,0,1,608,908) translate(126.725 14.6)"/></g><g><use xlink:href="#b" transform="matrix(1,0,0,1,612,945.6) translate(0 24.69999999999999)"/><use xlink:href="#c" transform="matrix(1,0,0,1,612,945.6) translate(15.5 24.69999999999999)"/><use xlink:href="#d" transform="matrix(1,0,0,1,612,945.6) translate(43.45 24.69999999999999)"/><use xlink:href="#b" transform="matrix(1,0,0,1,612,945.6) translate(0 46.29999999999999)"/><use xlink:href="#ae" transform="matrix(1,0,0,1,612,945.6) translate(15.5 46.29999999999999)"/><use xlink:href="#f" transform="matrix(1,0,0,1,612,945.6) translate(69.45 46.29999999999999)"/><use xlink:href="#b" transform="matrix(1,0,0,1,612,945.6) translate(0 67.89999999999999)"/><use xlink:href="#af" transform="matrix(1,0,0,1,612,945.6) translate(15.5 67.89999999999999)"/><use xlink:href="#ag" transform="matrix(1,0,0,1,612,945.6) translate(129.35 67.89999999999999)"/><use xlink:href="#b" transform="matrix(1,0,0,1,612,945.6) translate(0 89.5)"/><use xlink:href="#H" transform="matrix(1,0,0,1,612,945.6) translate(15.5 89.5)"/><use xlink:href="#A" transform="matrix(1,0,0,1,612,945.6) translate(61.45 89.5)"/></g><path d="M901.5 1009.5l.65-.02 1.12-.07 1.1-.1 1.06-.17 1.05-.2 1.04-.24 1.03-.3 1.03-.34 1.03-.38 1.05-.43 1.04-.5 1.04-.55 1.08-.6 1.1-.7 1.1-.8 1.17-.87 1.2-1 1.24-1.12 1.3-1.27 1.4-1.47 1.46-1.7 1.57-2 1.7-2.35 1.9-2.83 2.1-3.5 2.44-4.43 2.96-5.96 3.98-8.97 21.1-52.67 2.95-5.96 2.43-4.44 2.1-3.5 1.9-2.83 1.7-2.35 1.57-2 1.47-1.7 1.38-1.47 1.3-1.28 1.26-1.12 1.2-1 1.17-.88 1.12-.78 1.08-.7 1.08-.6 1.05-.56 1.05-.5 1.04-.43 1.02-.38 1.03-.34 1.03-.27 1.04-.25 1.05-.2 1.07-.16 1.1-.1 1.1-.08.66-.02" stroke="#333" fill="none"/><path d="M901.52 1010H901v-1h.5M999 880.5h-.5v-1h.5" fill="#333"/><g><use xlink:href="#Z" transform="matrix(1,0,0,1,909.1578475545359,1009.1595224280654) translate(0 14.4)"/></g><g><use xlink:href="#Z" transform="matrix(1,0,0,1,957.4109241619741,862.0611933003706) translate(0 14.4)"/></g><path d="M741.5 839l5.25-.14m5.25-.3l3.46-.28 6.35-.8.64-.12m5.17-.93h.08l5.46-1.3 4.64-1.32m4.98-1.67l.26-.1 4.52-1.8 4.27-1.98.6-.3m4.6-2.5l2.75-1.64 3.72-2.45 2.3-1.7m4.1-3.28l.6-.48 3.32-3.04 3.2-3.24.47-.5m3.45-3.97l2.24-2.77 2.95-4.06 1.06-1.6m2.8-4.47l1.8-3.12 2.7-5.24.4-.93m2.18-4.8l.02-.04 1.9-4.83" stroke="#333" fill="none"/><path d="M741.53 839.5H741v-1h.5" fill="#333"/><path d="M838.97 773.3l.2-.46" stroke="#333" fill="none"/><path d="M580 820h160v38H580z" stroke="#333" stroke-width="2" fill="#fff"/><g><use xlink:href="#ah" transform="matrix(1,0,0,1,588,828) translate(45.525 14.6)"/></g><path d="M80 780h300v197H80z" stroke="#333" stroke-width="2" fill="#fff"/><path d="M80 817.6h300M80 918.9h300" stroke="#333" stroke-width="2" fill="none"/><g><use xlink:href="#ai" transform="matrix(1,0,0,1,88,788) translate(100.05 14.6)"/></g><g><use xlink:href="#b" transform="matrix(1,0,0,1,92,825.6) translate(0 25)"/><use xlink:href="#c" transform="matrix(1,0,0,1,92,825.6) translate(15.5 25)"/><use xlink:href="#d" transform="matrix(1,0,0,1,92,825.6) translate(43.45 25)"/><use xlink:href="#b" transform="matrix(1,0,0,1,92,825.6) translate(0 46.6)"/><use xlink:href="#aj" transform="matrix(1,0,0,1,92,825.6) translate(15.5 46.6)"/><use xlink:href="#f" transform="matrix(1,0,0,1,92,825.6) translate(75.45 46.6)"/><use xlink:href="#b" transform="matrix(1,0,0,1,92,825.6) translate(0 68.2)"/><use xlink:href="#ak" transform="matrix(1,0,0,1,92,825.6) translate(15.5 68.2)"/><use xlink:href="#al" transform="matrix(1,0,0,1,92,825.6) translate(70.1 68.2)"/></g><path d="M230 778.5v-77" stroke="#333" fill="none"/><path d="M230.5 779h-1v-.5h1M230.5 701.5h-1v-.5h1" fill="#333"/><g><use xlink:href="#Q" transform="matrix(1,0,0,1,237.99999999948017,758.1988300134518) translate(0 14.4)"/></g><g><use xlink:href="#R" transform="matrix(1,0,0,1,211.9999999998458,710.3681695200406) translate(0 14.4)"/></g><path d="M1260 999h300v240h-300z" stroke="#333" stroke-width="2" fill="#fff"/><path d="M1260 1036.6h300m-300 144.5h300" stroke="#333" stroke-width="2" fill="none"/><g><use xlink:href="#am" transform="matrix(1,0,0,1,1268,1007) translate(97.57499999999999 14.6)"/></g><g><use xlink:href="#b" transform="matrix(1,0,0,1,1272,1044.6) translate(0 24.89999999999999)"/><use xlink:href="#c" transform="matrix(1,0,0,1,1272,1044.6) translate(15.5 24.89999999999999)"/><use xlink:href="#d" transform="matrix(1,0,0,1,1272,1044.6) translate(43.45 24.89999999999999)"/><use xlink:href="#b" transform="matrix(1,0,0,1,1272,1044.6) translate(0 46.49999999999999)"/><use xlink:href="#ae" transform="matrix(1,0,0,1,1272,1044.6) translate(15.5 46.49999999999999)"/><use xlink:href="#f" transform="matrix(1,0,0,1,1272,1044.6) translate(69.45 46.49999999999999)"/><use xlink:href="#b" transform="matrix(1,0,0,1,1272,1044.6) translate(0 68.1)"/><use xlink:href="#an" transform="matrix(1,0,0,1,1272,1044.6) translate(15.5 68.1)"/><use xlink:href="#f" transform="matrix(1,0,0,1,1272,1044.6) translate(115.30000000000001 68.1)"/><use xlink:href="#b" transform="matrix(1,0,0,1,1272,1044.6) translate(0 89.70000000000002)"/><use xlink:href="#af" transform="matrix(1,0,0,1,1272,1044.6) translate(15.5 89.70000000000002)"/><use xlink:href="#d" transform="matrix(1,0,0,1,1272,1044.6) translate(129.35 89.70000000000002)"/><use xlink:href="#b" transform="matrix(1,0,0,1,1272,1044.6) translate(0 111.30000000000001)"/><use xlink:href="#H" transform="matrix(1,0,0,1,1272,1044.6) translate(15.5 111.30000000000001)"/><use xlink:href="#A" transform="matrix(1,0,0,1,1272,1044.6) translate(61.45 111.30000000000001)"/></g><path d="M1258.5 1119l-3.96-.1-4.28-.26-4.13-.43-3.98-.58-3.85-.74-3.74-.87-3.64-1-3.56-1.17-3.48-1.3-3.4-1.42-3.36-1.57-3.3-1.72-3.25-1.87-3.22-2.04-3.18-2.23-3.15-2.4-3.13-2.58-3.12-2.8-3.1-3.04-3.06-3.26-3.05-3.54-3.03-3.82-3-4.14-2.97-4.47-2.93-4.84-2.88-5.25-2.8-5.66-2.72-6.12-2.6-6.6-2.48-7.07-2.28-7.58-2.08-8.08-1.82-8.57-1.52-9-1.18-9.4-.82-9.66-.4-9.85-.05-4.45" stroke="#333" fill="none"/><path d="M1259 1118.5v1h-.53l.03-1M1150.5 969.5l-1 .02V969h1" fill="#333"/><g><use xlink:href="#Z" transform="matrix(1,0,0,1,1232.2277261723164,1092.1421080220002) translate(0 14.4)"/></g><g><use xlink:href="#ac" transform="matrix(1,0,0,1,1115.9625467329406,979.3770507697319) translate(0 14.4)"/></g><path d="M1440 660h300v175h-300z" stroke="#333" stroke-width="2" fill="#fff"/><path d="M1440 697.6h300m-300 79.7h300" stroke="#333" stroke-width="2" fill="none"/><g><use xlink:href="#ao" transform="matrix(1,0,0,1,1448,668) translate(114.575 14.6)"/></g><g><use xlink:href="#b" transform="matrix(1,0,0,1,1452,705.6) translate(0 24.799999999999997)"/><use xlink:href="#c" transform="matrix(1,0,0,1,1452,705.6) translate(15.5 24.799999999999997)"/><use xlink:href="#d" transform="matrix(1,0,0,1,1452,705.6) translate(43.45 24.799999999999997)"/><use xlink:href="#b" transform="matrix(1,0,0,1,1452,705.6) translate(0 46.4)"/><use xlink:href="#ae" transform="matrix(1,0,0,1,1452,705.6) translate(15.5 46.4)"/><use xlink:href="#A" transform="matrix(1,0,0,1,1452,705.6) translate(69.45 46.4)"/></g><path d="M1438.5 747.5l-5.57.12-5.43.34-4.93.52-4.54.67-4.22.8-3.98.94-3.8 1.05-3.7 1.2-3.66 1.36-3.67 1.56-3.83 1.8-4.13 2.16-4.87 2.82-7.8 4.98-16.54 10.84-4.87 2.82-4.13 2.16-3.82 1.8-3.66 1.55-3.65 1.34-3.7 1.2-3.82 1.07-4 .94-4.2.8-4.55.68-4.93.52-5.43.34-5.57.1" stroke="#333" fill="none"/><path d="M1439 748h-.5l-.03-1h.53M1301.5 794.5h-.5v-1h.5" fill="#333"/><g><use xlink:href="#ac" transform="matrix(1,0,0,1,1403.4227065898426,723.3785216310665) translate(0 14.4)"/></g><g><use xlink:href="#R" transform="matrix(1,0,0,1,1319.7346332986067,796.0279866514069) translate(0 14.4)"/></g><defs><path fill="#333" d="M238-95c0 69-44 99-111 99C63 4 22-25 22-93v-155h51v151c-1 38 19 59 55 60 90 1 49-130 58-211h52v153" id="ap"/><path fill="#333" d="M137-138c1-29-70-34-71-4 15 46 118 7 119 86 1 83-164 76-172 9l43-7c4 19 20 25 44 25 33 8 57-30 24-41C81-84 22-81 20-136c-2-80 154-74 161-7" id="aq"/><path fill="#333" d="M185-48c-13 30-37 53-82 52C43 2 14-33 14-96s30-98 90-98c62 0 83 45 84 108H66c0 31 8 55 39 56 18 0 30-7 34-22zm-45-69c5-46-57-63-70-21-2 6-4 13-4 21h74" id="ar"/><path fill="#333" d="M135-150c-39-12-60 13-60 57V0H25l-1-190h47c2 13-1 29 3 40 6-28 27-53 61-41v41" id="as"/><g id="a"><use transform="matrix(0.05,0,0,0.05,0,0)" xlink:href="#ap"/><use transform="matrix(0.05,0,0,0.05,12.950000000000001,0)" xlink:href="#aq"/><use transform="matrix(0.05,0,0,0.05,22.950000000000003,0)" xlink:href="#ar"/><use transform="matrix(0.05,0,0,0.05,32.95,0)" xlink:href="#as"/></g><path fill="#333" d="M118-107v75H92v-75H18v-26h74v-75h26v75h74v26h-74" id="at"/><use transform="matrix(0.05,0,0,0.05,0,0)" xlink:href="#at" id="b"/><path fill="#333" d="M33 0v-248h34V0H33" id="au"/><path fill="#333" d="M30-248c118-7 216 8 213 122C240-48 200 0 122 0H30v-248zM63-27c89 8 146-16 146-99s-60-101-146-95v194" id="av"/><path fill="#333" d="M33-154v-36h34v36H33zM33 0v-36h34V0H33" id="aw"/><g id="c"><use transform="matrix(0.05,0,0,0.05,0,0)" xlink:href="#au"/><use transform="matrix(0.05,0,0,0.05,5,0)" xlink:href="#av"/><use transform="matrix(0.05,0,0,0.05,17.950000000000003,0)" xlink:href="#aw"/></g><path fill="#333" d="M117-194c89-4 53 116 60 194h-32v-121c0-31-8-49-39-48C34-167 62-67 57 0H25l-1-190h30c1 10-1 24 2 32 11-22 29-35 61-36" id="ax"/><path fill="#333" d="M59-47c-2 24 18 29 38 22v24C64 9 27 4 27-40v-127H5v-23h24l9-43h21v43h35v23H59v120" id="ay"/><path fill="#333" d="M100-194c63 0 86 42 84 106H49c0 40 14 67 53 68 26 1 43-12 49-29l28 8c-11 28-37 45-77 45C44 4 14-33 15-96c1-61 26-98 85-98zm52 81c6-60-76-77-97-28-3 7-6 17-6 28h103" id="az"/><path fill="#333" d="M177-190C167-65 218 103 67 71c-23-6-38-20-44-43l32-5c15 47 100 32 89-28v-30C133-14 115 1 83 1 29 1 15-40 15-95c0-56 16-97 71-98 29-1 48 16 59 35 1-10 0-23 2-32h30zM94-22c36 0 50-32 50-73 0-42-14-75-50-75-39 0-46 34-46 75s6 73 46 73" id="aA"/><path fill="#333" d="M114-163C36-179 61-72 57 0H25l-1-190h30c1 12-1 29 2 39 6-27 23-49 58-41v29" id="aB"/><g id="d"><use transform="matrix(0.05,0,0,0.05,0,0)" xlink:href="#au"/><use transform="matrix(0.05,0,0,0.05,5,0)" xlink:href="#ax"/><use transform="matrix(0.05,0,0,0.05,15,0)" xlink:href="#ay"/><use transform="matrix(0.05,0,0,0.05,20,0)" xlink:href="#az"/><use transform="matrix(0.05,0,0,0.05,30,0)" xlink:href="#aA"/><use transform="matrix(0.05,0,0,0.05,40,0)" xlink:href="#az"/><use transform="matrix(0.05,0,0,0.05,50,0)" xlink:href="#aB"/></g><path fill="#333" d="M232-93c-1 65-40 97-104 97C67 4 28-28 28-90v-158h33c8 89-33 224 67 224 102 0 64-133 71-224h33v155" id="aC"/><g id="e"><use transform="matrix(0.05,0,0,0.05,0,0)" xlink:href="#aC"/><use transform="matrix(0.05,0,0,0.05,12.950000000000001,0)" xlink:href="#aC"/><use transform="matrix(0.05,0,0,0.05,25.900000000000002,0)" xlink:href="#au"/><use transform="matrix(0.05,0,0,0.05,30.900000000000002,0)" xlink:href="#av"/><use transform="matrix(0.05,0,0,0.05,43.85,0)" xlink:href="#aw"/></g><path fill="#333" d="M185-189c-5-48-123-54-124 2 14 75 158 14 163 119 3 78-121 87-175 55-17-10-28-26-33-46l33-7c5 56 141 63 141-1 0-78-155-14-162-118-5-82 145-84 179-34 5 7 8 16 11 25" id="aD"/><path fill="#333" d="M24-231v-30h32v30H24zM24 0v-190h32V0H24" id="aE"/><g id="f"><use transform="matrix(0.05,0,0,0.05,0,0)" xlink:href="#aD"/><use transform="matrix(0.05,0,0,0.05,12,0)" xlink:href="#ay"/><use transform="matrix(0.05,0,0,0.05,17,0)" xlink:href="#aB"/><use transform="matrix(0.05,0,0,0.05,22.95,0)" xlink:href="#aE"/><use transform="matrix(0.05,0,0,0.05,26.899999999999995,0)" xlink:href="#ax"/><use transform="matrix(0.05,0,0,0.05,36.9,0)" xlink:href="#aA"/></g><path fill="#333" d="M190 0L58-211 59 0H30v-248h39L202-35l-2-213h31V0h-41" id="aF"/><path fill="#333" d="M141-36C126-15 110 5 73 4 37 3 15-17 15-53c-1-64 63-63 125-63 3-35-9-54-41-54-24 1-41 7-42 31l-33-3c5-37 33-52 76-52 45 0 72 20 72 64v82c-1 20 7 32 28 27v20c-31 9-61-2-59-35zM48-53c0 20 12 33 32 33 41-3 63-29 60-74-43 2-92-5-92 41" id="aG"/><path fill="#333" d="M210-169c-67 3-38 105-44 169h-31v-121c0-29-5-50-35-48C34-165 62-65 56 0H25l-1-190h30c1 10-1 24 2 32 10-44 99-50 107 0 11-21 27-35 58-36 85-2 47 119 55 194h-31v-121c0-29-5-49-35-48" id="aH"/><g id="g"><use transform="matrix(0.05,0,0,0.05,0,0)" xlink:href="#aF"/><use transform="matrix(0.05,0,0,0.05,12.950000000000001,0)" xlink:href="#aG"/><use transform="matrix(0.05,0,0,0.05,22.950000000000003,0)" xlink:href="#aH"/><use transform="matrix(0.05,0,0,0.05,37.900000000000006,0)" xlink:href="#az"/><use transform="matrix(0.05,0,0,0.05,47.900000000000006,0)" xlink:href="#aw"/></g><path fill="#333" d="M63-220v92h138v28H63V0H30v-248h175v28H63" id="aI"/><path fill="#333" d="M100-194c62-1 85 37 85 99 1 63-27 99-86 99S16-35 15-95c0-66 28-99 85-99zM99-20c44 1 53-31 53-75 0-43-8-75-51-75s-53 32-53 75 10 74 51 75" id="aJ"/><g id="h"><use transform="matrix(0.05,0,0,0.05,0,0)" xlink:href="#aI"/><use transform="matrix(0.05,0,0,0.05,10.950000000000001,0)" xlink:href="#aJ"/><use transform="matrix(0.05,0,0,0.05,20.950000000000003,0)" xlink:href="#aB"/><use transform="matrix(0.05,0,0,0.05,26.900000000000002,0)" xlink:href="#aF"/><use transform="matrix(0.05,0,0,0.05,39.85,0)" xlink:href="#aG"/><use transform="matrix(0.05,0,0,0.05,49.85,0)" xlink:href="#aH"/><use transform="matrix(0.05,0,0,0.05,64.8,0)" xlink:href="#az"/><use transform="matrix(0.05,0,0,0.05,74.8,0)" xlink:href="#aw"/></g><path fill="#333" d="M160-131c35 5 61 23 61 61C221 17 115-2 30 0v-248c76 3 177-17 177 60 0 33-19 50-47 57zm-97-11c50-1 110 9 110-42 0-47-63-36-110-37v79zm0 115c55-2 124 14 124-45 0-56-70-42-124-44v89" id="aK"/><path fill="#333" d="M106-169C34-169 62-67 57 0H25v-261h32l-1 103c12-21 28-36 61-36 89 0 53 116 60 194h-32v-121c2-32-8-49-39-48" id="aL"/><path fill="#333" d="M85-194c31 0 48 13 60 33l-1-100h32l1 261h-30c-2-10 0-23-3-31C134-8 116 4 85 4 32 4 16-35 15-94c0-66 23-100 70-100zm9 24c-40 0-46 34-46 75 0 40 6 74 45 74 42 0 51-32 51-76 0-42-9-74-50-73" id="aM"/><path fill="#333" d="M179-190L93 31C79 59 56 82 12 73V49c39 6 53-20 64-50L1-190h34L92-34l54-156h33" id="aN"/><g id="i"><use transform="matrix(0.05,0,0,0.05,0,0)" xlink:href="#aK"/><use transform="matrix(0.05,0,0,0.05,12,0)" xlink:href="#aE"/><use transform="matrix(0.05,0,0,0.05,15.949999999999998,0)" xlink:href="#aB"/><use transform="matrix(0.05,0,0,0.05,21.9,0)" xlink:href="#ay"/><use transform="matrix(0.05,0,0,0.05,26.899999999999995,0)" xlink:href="#aL"/><use transform="matrix(0.05,0,0,0.05,36.9,0)" xlink:href="#aM"/><use transform="matrix(0.05,0,0,0.05,46.9,0)" xlink:href="#aG"/><use transform="matrix(0.05,0,0,0.05,56.900000000000006,0)" xlink:href="#aN"/><use transform="matrix(0.05,0,0,0.05,65.9,0)" xlink:href="#aw"/></g><path fill="#333" d="M127-220V0H93v-220H8v-28h204v28h-85" id="aO"/><g id="j"><use transform="matrix(0.05,0,0,0.05,0,0)" xlink:href="#av"/><use transform="matrix(0.05,0,0,0.05,12.950000000000001,0)" xlink:href="#aG"/><use transform="matrix(0.05,0,0,0.05,22.950000000000003,0)" xlink:href="#ay"/><use transform="matrix(0.05,0,0,0.05,27.950000000000003,0)" xlink:href="#az"/><use transform="matrix(0.05,0,0,0.05,37.95,0)" xlink:href="#aO"/><use transform="matrix(0.05,0,0,0.05,48.25000000000001,0)" xlink:href="#aE"/><use transform="matrix(0.05,0,0,0.05,52.20000000000002,0)" xlink:href="#aH"/><use transform="matrix(0.05,0,0,0.05,67.15,0)" xlink:href="#az"/></g><path fill="#333" d="M30 0v-248h33v221h125V0H30" id="aP"/><path fill="#333" d="M135-143c-3-34-86-38-87 0 15 53 115 12 119 90S17 21 10-45l28-5c4 36 97 45 98 0-10-56-113-15-118-90-4-57 82-63 122-42 12 7 21 19 24 35" id="aQ"/><g id="k"><use transform="matrix(0.05,0,0,0.05,0,0)" xlink:href="#aP"/><use transform="matrix(0.05,0,0,0.05,10,0)" xlink:href="#aG"/><use transform="matrix(0.05,0,0,0.05,20,0)" xlink:href="#aQ"/><use transform="matrix(0.05,0,0,0.05,29,0)" xlink:href="#ay"/><use transform="matrix(0.05,0,0,0.05,34,0)" xlink:href="#aP"/><use transform="matrix(0.05,0,0,0.05,44,0)" xlink:href="#aJ"/><use transform="matrix(0.05,0,0,0.05,54,0)" xlink:href="#aA"/><use transform="matrix(0.05,0,0,0.05,64,0)" xlink:href="#aE"/><use transform="matrix(0.05,0,0,0.05,67.95,0)" xlink:href="#ax"/><use transform="matrix(0.05,0,0,0.05,77.95,0)" xlink:href="#aw"/></g><path fill="#333" d="M205 0l-28-72H64L36 0H1l101-248h38L239 0h-34zm-38-99l-47-123c-12 45-31 82-46 123h93" id="aR"/><path fill="#333" d="M108 0H70L1-190h34L89-25l56-165h34" id="aS"/><g id="l"><use transform="matrix(0.05,0,0,0.05,0,0)" xlink:href="#aR"/><use transform="matrix(0.05,0,0,0.05,11.65,0)" xlink:href="#aS"/><use transform="matrix(0.05,0,0,0.05,20.65,0)" xlink:href="#aG"/><use transform="matrix(0.05,0,0,0.05,30.649999999999995,0)" xlink:href="#ay"/><use transform="matrix(0.05,0,0,0.05,35.65,0)" xlink:href="#aG"/><use transform="matrix(0.05,0,0,0.05,45.65,0)" xlink:href="#aB"/><use transform="matrix(0.05,0,0,0.05,51.6,0)" xlink:href="#aw"/></g><path fill="#333" d="M233-177c-1 41-23 64-60 70L243 0h-38l-65-103H63V0H30v-248c88 3 205-21 203 71zM63-129c60-2 137 13 137-47 0-61-80-42-137-45v92" id="aT"/><path fill="#333" d="M24 0v-261h32V0H24" id="aU"/><g id="m"><use transform="matrix(0.05,0,0,0.05,0,0)" xlink:href="#aT"/><use transform="matrix(0.05,0,0,0.05,12.950000000000001,0)" xlink:href="#aJ"/><use transform="matrix(0.05,0,0,0.05,22.950000000000003,0)" xlink:href="#aU"/><use transform="matrix(0.05,0,0,0.05,26.900000000000002,0)" xlink:href="#az"/><use transform="matrix(0.05,0,0,0.05,36.900000000000006,0)" xlink:href="#aw"/></g><path fill="#333" d="M115-194c55 1 70 41 70 98S169 2 115 4C84 4 66-9 55-30l1 105H24l-1-265h31l2 30c10-21 28-34 59-34zm-8 174c40 0 45-34 45-75s-6-73-45-74c-42 0-51 32-51 76 0 43 10 73 51 73" id="aV"/><g id="n"><use transform="matrix(0.05,0,0,0.05,0,0)" xlink:href="#av"/><use transform="matrix(0.05,0,0,0.05,12.950000000000001,0)" xlink:href="#aE"/><use transform="matrix(0.05,0,0,0.05,16.900000000000002,0)" xlink:href="#aQ"/><use transform="matrix(0.05,0,0,0.05,25.900000000000002,0)" xlink:href="#aV"/><use transform="matrix(0.05,0,0,0.05,35.900000000000006,0)" xlink:href="#aU"/><use transform="matrix(0.05,0,0,0.05,39.85000000000001,0)" xlink:href="#aG"/><use transform="matrix(0.05,0,0,0.05,49.85000000000001,0)" xlink:href="#aN"/><use transform="matrix(0.05,0,0,0.05,58.85,0)" xlink:href="#aF"/><use transform="matrix(0.05,0,0,0.05,71.80000000000001,0)" xlink:href="#aG"/><use transform="matrix(0.05,0,0,0.05,81.80000000000001,0)" xlink:href="#aH"/><use transform="matrix(0.05,0,0,0.05,96.75000000000001,0)" xlink:href="#az"/><use transform="matrix(0.05,0,0,0.05,106.75,0)" xlink:href="#aw"/></g><path fill="#333" d="M-5 72V49h209v23H-5" id="aW"/><path fill="#333" d="M96-169c-40 0-48 33-48 73s9 75 48 75c24 0 41-14 43-38l32 2c-6 37-31 61-74 61-59 0-76-41-82-99-10-93 101-131 147-64 4 7 5 14 7 22l-32 3c-4-21-16-35-41-35" id="aX"/><g id="o"><use transform="matrix(0.05,0,0,0.05,0,0)" xlink:href="#aP"/><use transform="matrix(0.05,0,0,0.05,10,0)" xlink:href="#aG"/><use transform="matrix(0.05,0,0,0.05,20,0)" xlink:href="#aQ"/><use transform="matrix(0.05,0,0,0.05,29,0)" xlink:href="#ay"/><use transform="matrix(0.05,0,0,0.05,34,0)" xlink:href="#aW"/><use transform="matrix(0.05,0,0,0.05,44,0)" xlink:href="#aG"/><use transform="matrix(0.05,0,0,0.05,54,0)" xlink:href="#aX"/><use transform="matrix(0.05,0,0,0.05,63,0)" xlink:href="#ay"/><use transform="matrix(0.05,0,0,0.05,68,0)" xlink:href="#aE"/><use transform="matrix(0.05,0,0,0.05,71.95,0)" xlink:href="#aS"/><use transform="matrix(0.05,0,0,0.05,80.95,0)" xlink:href="#aE"/><use transform="matrix(0.05,0,0,0.05,84.9,0)" xlink:href="#ay"/><use transform="matrix(0.05,0,0,0.05,89.9,0)" xlink:href="#aN"/><use transform="matrix(0.05,0,0,0.05,98.9,0)" xlink:href="#aw"/></g><g id="p"><use transform="matrix(0.05,0,0,0.05,0,0)" xlink:href="#av"/><use transform="matrix(0.05,0,0,0.05,12.950000000000001,0)" xlink:href="#aG"/><use transform="matrix(0.05,0,0,0.05,22.950000000000003,0)" xlink:href="#ay"/><use transform="matrix(0.05,0,0,0.05,27.950000000000003,0)" xlink:href="#az"/><use transform="matrix(0.05,0,0,0.05,37.95,0)" xlink:href="#ay"/><use transform="matrix(0.05,0,0,0.05,42.95,0)" xlink:href="#aE"/><use transform="matrix(0.05,0,0,0.05,46.900000000000006,0)" xlink:href="#aH"/><use transform="matrix(0.05,0,0,0.05,61.85,0)" xlink:href="#az"/></g><path fill="#333" d="M84 4C-5 8 30-112 23-190h32v120c0 31 7 50 39 49 72-2 45-101 50-169h31l1 190h-30c-1-10 1-25-2-33-11 22-28 36-60 37" id="aY"/><g id="q"><use transform="matrix(0.05,0,0,0.05,0,0)" xlink:href="#aP"/><use transform="matrix(0.05,0,0,0.05,10,0)" xlink:href="#aJ"/><use transform="matrix(0.05,0,0,0.05,20,0)" xlink:href="#aA"/><use transform="matrix(0.05,0,0,0.05,30,0)" xlink:href="#aE"/><use transform="matrix(0.05,0,0,0.05,33.95,0)" xlink:href="#ax"/><use transform="matrix(0.05,0,0,0.05,43.95,0)" xlink:href="#aW"/><use transform="matrix(0.05,0,0,0.05,53.95,0)" xlink:href="#aD"/><use transform="matrix(0.05,0,0,0.05,65.95,0)" xlink:href="#aG"/><use transform="matrix(0.05,0,0,0.05,75.95,0)" xlink:href="#ay"/><use transform="matrix(0.05,0,0,0.05,80.95,0)" xlink:href="#aY"/><use transform="matrix(0.05,0,0,0.05,90.95,0)" xlink:href="#ay"/><use transform="matrix(0.05,0,0,0.05,95.95,0)" xlink:href="#aQ"/><use transform="matrix(0.05,0,0,0.05,104.95,0)" xlink:href="#aw"/></g><path fill="#333" d="M212-179c-10-28-35-45-73-45-59 0-87 40-87 99 0 60 29 101 89 101 43 0 62-24 78-52l27 14C228-24 195 4 139 4 59 4 22-46 18-125c-6-104 99-153 187-111 19 9 31 26 39 46" id="aZ"/><g id="r"><use transform="matrix(0.05,0,0,0.05,0,0)" xlink:href="#aZ"/><use transform="matrix(0.05,0,0,0.05,12.950000000000001,0)" xlink:href="#aB"/><use transform="matrix(0.05,0,0,0.05,18.900000000000002,0)" xlink:href="#az"/><use transform="matrix(0.05,0,0,0.05,28.900000000000002,0)" xlink:href="#aG"/><use transform="matrix(0.05,0,0,0.05,38.900000000000006,0)" xlink:href="#ay"/><use transform="matrix(0.05,0,0,0.05,43.900000000000006,0)" xlink:href="#az"/><use transform="matrix(0.05,0,0,0.05,53.900000000000006,0)" xlink:href="#aM"/><use transform="matrix(0.05,0,0,0.05,63.900000000000006,0)" xlink:href="#aw"/></g><path fill="#333" d="M240 0l2-218c-23 76-54 145-80 218h-23L58-218 59 0H30v-248h44l77 211c21-75 51-140 76-211h43V0h-30" id="ba"/><path fill="#333" d="M101-234c-31-9-42 10-38 44h38v23H63V0H32v-167H5v-23h27c-7-52 17-82 69-68v24" id="bb"/><g id="s"><use transform="matrix(0.05,0,0,0.05,0,0)" xlink:href="#ba"/><use transform="matrix(0.05,0,0,0.05,14.950000000000001,0)" xlink:href="#aJ"/><use transform="matrix(0.05,0,0,0.05,24.950000000000003,0)" xlink:href="#aM"/><use transform="matrix(0.05,0,0,0.05,34.95,0)" xlink:href="#aE"/><use transform="matrix(0.05,0,0,0.05,38.900000000000006,0)" xlink:href="#bb"/><use transform="matrix(0.05,0,0,0.05,43.900000000000006,0)" xlink:href="#aE"/><use transform="matrix(0.05,0,0,0.05,47.85000000000001,0)" xlink:href="#az"/><use transform="matrix(0.05,0,0,0.05,57.85,0)" xlink:href="#aM"/><use transform="matrix(0.05,0,0,0.05,67.85000000000001,0)" xlink:href="#aw"/></g><g id="t"><use transform="matrix(0.05,0,0,0.05,0,0)" xlink:href="#av"/><use transform="matrix(0.05,0,0,0.05,12.950000000000001,0)" xlink:href="#aG"/><use transform="matrix(0.05,0,0,0.05,22.950000000000003,0)" xlink:href="#ay"/><use transform="matrix(0.05,0,0,0.05,27.950000000000003,0)" xlink:href="#az"/><use transform="matrix(0.05,0,0,0.05,37.95,0)" xlink:href="#ay"/><use transform="matrix(0.05,0,0,0.05,42.95,0)" xlink:href="#aE"/><use transform="matrix(0.05,0,0,0.05,46.900000000000006,0)" xlink:href="#aH"/><use transform="matrix(0.05,0,0,0.05,61.85,0)" xlink:href="#az"/></g><path fill="#a9afb8" d="M67-125c0 53 21 87 73 88 37 1 54-22 65-47l45 17C233-25 199 4 140 4 58 4 20-42 15-125 8-235 124-281 211-232c18 10 29 29 36 50l-46 12c-8-25-30-41-62-41-52 0-71 34-72 86" id="bc"/><path fill="#a9afb8" d="M25 0v-261h50V0H25" id="bd"/><path fill="#a9afb8" d="M133-34C117-15 103 5 69 4 32 3 11-16 11-54c-1-60 55-63 116-61 1-26-3-47-28-47-18 1-26 9-28 27l-52-2c7-38 36-58 82-57s74 22 75 68l1 82c-1 14 12 18 25 15v27c-30 8-71 5-69-32zm-48 3c29 0 43-24 42-57-32 0-66-3-65 30 0 17 8 27 23 27" id="be"/><path fill="#a9afb8" d="M137-138c1-29-70-34-71-4 15 46 118 7 119 86 1 83-164 76-172 9l43-7c4 19 20 25 44 25 33 8 57-30 24-41C81-84 22-81 20-136c-2-80 154-74 161-7" id="bf"/><path fill="#a9afb8" d="M185-48c-13 30-37 53-82 52C43 2 14-33 14-96s30-98 90-98c62 0 83 45 84 108H66c0 31 8 55 39 56 18 0 30-7 34-22zm-45-69c5-46-57-63-70-21-2 6-4 13-4 21h74" id="bg"/><g id="u"><use transform="matrix(0.0728395061728395,0,0,0.0728395061728395,0,0)" xlink:href="#bc"/><use transform="matrix(0.0728395061728395,0,0,0.0728395061728395,18.86543209876543,0)" xlink:href="#bd"/><use transform="matrix(0.0728395061728395,0,0,0.0728395061728395,26.14938271604938,0)" xlink:href="#be"/><use transform="matrix(0.0728395061728395,0,0,0.0728395061728395,40.717283950617286,0)" xlink:href="#bf"/><use transform="matrix(0.0728395061728395,0,0,0.0728395061728395,55.28518518518518,0)" xlink:href="#bf"/><use transform="matrix(0.0728395061728395,0,0,0.0728395061728395,69.85308641975308,0)" xlink:href="#bg"/></g><path fill="#a9afb8" d="M238-95c0 69-44 99-111 99C63 4 22-25 22-93v-155h51v151c-1 38 19 59 55 60 90 1 49-130 58-211h52v153" id="bh"/><path fill="#a9afb8" d="M230 0l2-204L168 0h-37L68-204 70 0H24v-248h70l56 185 57-185h69V0h-46" id="bi"/><path fill="#a9afb8" d="M24 0v-248h52v208h133V0H24" id="bj"/><g id="v"><use transform="matrix(0.0728395061728395,0,0,0.0728395061728395,0,0)" xlink:href="#bh"/><use transform="matrix(0.0728395061728395,0,0,0.0728395061728395,18.86543209876543,0)" xlink:href="#bi"/><use transform="matrix(0.0728395061728395,0,0,0.0728395061728395,40.644444444444446,0)" xlink:href="#bj"/></g><path fill="#a9afb8" d="M135-194c52 0 70 43 70 98 0 56-19 99-73 100-30 1-46-15-58-35L72 0H24l1-261h50v104c11-23 29-37 60-37zM114-30c31 0 40-27 40-66 0-37-7-63-39-63s-41 28-41 65c0 36 8 64 40 64" id="bk"/><path fill="#a9afb8" d="M110-194c64 0 96 36 96 99 0 64-35 99-97 99-61 0-95-36-95-99 0-62 34-99 96-99zm-1 164c35 0 45-28 45-65 0-40-10-65-43-65-34 0-45 26-45 65 0 36 10 65 43 65" id="bl"/><path fill="#a9afb8" d="M195-6C206 82 75 100 31 46c-4-6-6-13-8-21l49-6c3 16 16 24 34 25 40 0 42-37 40-79-11 22-30 35-61 35-53 0-70-43-70-97 0-56 18-96 73-97 30 0 46 14 59 34l2-30h47zm-90-29c32 0 41-27 41-63 0-35-9-62-40-62-32 0-39 29-40 63 0 36 9 62 39 62" id="bm"/><g id="w"><use transform="matrix(0.0728395061728395,0,0,0.0728395061728395,0,0)" xlink:href="#bk"/><use transform="matrix(0.0728395061728395,0,0,0.0728395061728395,15.95185185185185,0)" xlink:href="#bd"/><use transform="matrix(0.0728395061728395,0,0,0.0728395061728395,23.235802469135802,0)" xlink:href="#bl"/><use transform="matrix(0.0728395061728395,0,0,0.0728395061728395,39.187654320987654,0)" xlink:href="#bm"/></g><path fill="#333" d="M240-174c0 40-23 61-54 70L253 0h-59l-57-94H76V0H24v-248c93 4 217-23 216 74zM76-134c48-2 112 12 112-38 0-48-66-32-112-35v73" id="bn"/><path fill="#333" d="M110-194c64 0 96 36 96 99 0 64-35 99-97 99-61 0-95-36-95-99 0-62 34-99 96-99zm-1 164c35 0 45-28 45-65 0-40-10-65-43-65-34 0-45 26-45 65 0 36 10 65 43 65" id="bo"/><path fill="#333" d="M25 0v-261h50V0H25" id="bp"/><g id="x"><use transform="matrix(0.05,0,0,0.05,0,0)" xlink:href="#bn"/><use transform="matrix(0.05,0,0,0.05,12.950000000000001,0)" xlink:href="#bo"/><use transform="matrix(0.05,0,0,0.05,23.900000000000002,0)" xlink:href="#bp"/><use transform="matrix(0.05,0,0,0.05,28.900000000000002,0)" xlink:href="#ar"/></g><path fill="#333" d="M115-194c53 0 69 39 70 98 0 66-23 100-70 100C84 3 66-7 56-30L54 0H23l1-261h32v101c10-23 28-34 59-34zm-8 174c40 0 45-34 45-75 0-40-5-75-45-74-42 0-51 32-51 76 0 43 10 73 51 73" id="bq"/><g id="y"><use transform="matrix(0.05,0,0,0.05,0,0)" xlink:href="#aP"/><use transform="matrix(0.05,0,0,0.05,10,0)" xlink:href="#aG"/><use transform="matrix(0.05,0,0,0.05,20,0)" xlink:href="#bq"/><use transform="matrix(0.05,0,0,0.05,30,0)" xlink:href="#az"/><use transform="matrix(0.05,0,0,0.05,40,0)" xlink:href="#aU"/></g><use transform="matrix(0.05,0,0,0.05,0,0)" xlink:href="#aw" id="z"/><g id="A"><use transform="matrix(0.05,0,0,0.05,0,0)" xlink:href="#aD"/><use transform="matrix(0.05,0,0,0.05,12,0)" xlink:href="#ay"/><use transform="matrix(0.05,0,0,0.05,17,0)" xlink:href="#aB"/><use transform="matrix(0.05,0,0,0.05,22.95,0)" xlink:href="#aE"/><use transform="matrix(0.05,0,0,0.05,26.899999999999995,0)" xlink:href="#ax"/><use transform="matrix(0.05,0,0,0.05,36.9,0)" xlink:href="#aA"/></g><path fill="#333" d="M199 0l-22-63H83L61 0H9l90-248h61L250 0h-51zm-33-102l-36-108c-10 38-24 72-36 108h72" id="br"/><path fill="#333" d="M115-3C79 11 28 4 28-45v-112H4v-33h27l15-45h31v45h36v33H77v99c-1 23 16 31 38 25v30" id="bs"/><path fill="#333" d="M25-224v-37h50v37H25zM25 0v-190h50V0H25" id="bt"/><path fill="#333" d="M190-63c-7 42-38 67-86 67-59 0-84-38-90-98-12-110 154-137 174-36l-49 2c-2-19-15-32-35-32-30 0-35 28-38 64-6 74 65 87 74 30" id="bu"/><g id="B"><use transform="matrix(0.05,0,0,0.05,0,0)" xlink:href="#br"/><use transform="matrix(0.05,0,0,0.05,12.950000000000001,0)" xlink:href="#as"/><use transform="matrix(0.05,0,0,0.05,19.950000000000003,0)" xlink:href="#bs"/><use transform="matrix(0.05,0,0,0.05,25.900000000000002,0)" xlink:href="#bt"/><use transform="matrix(0.05,0,0,0.05,30.900000000000002,0)" xlink:href="#bu"/><use transform="matrix(0.05,0,0,0.05,40.900000000000006,0)" xlink:href="#bp"/><use transform="matrix(0.05,0,0,0.05,45.900000000000006,0)" xlink:href="#ar"/></g><g id="C"><use transform="matrix(0.05,0,0,0.05,0,0)" xlink:href="#aO"/><use transform="matrix(0.05,0,0,0.05,10.3,0)" xlink:href="#aE"/><use transform="matrix(0.05,0,0,0.05,14.25,0)" xlink:href="#ay"/><use transform="matrix(0.05,0,0,0.05,19.25,0)" xlink:href="#aU"/><use transform="matrix(0.05,0,0,0.05,23.2,0)" xlink:href="#az"/><use transform="matrix(0.05,0,0,0.05,33.2,0)" xlink:href="#aw"/></g><path fill="#333" d="M30 0v-248h187v28H63v79h144v27H63v87h162V0H30" id="bv"/><path fill="#333" d="M141 0L90-78 38 0H4l68-98-65-92h35l48 74 47-74h35l-64 92 68 98h-35" id="bw"/><g id="D"><use transform="matrix(0.05,0,0,0.05,0,0)" xlink:href="#bv"/><use transform="matrix(0.05,0,0,0.05,12,0)" xlink:href="#bw"/><use transform="matrix(0.05,0,0,0.05,21,0)" xlink:href="#aX"/><use transform="matrix(0.05,0,0,0.05,30,0)" xlink:href="#az"/><use transform="matrix(0.05,0,0,0.05,40,0)" xlink:href="#aB"/><use transform="matrix(0.05,0,0,0.05,45.95,0)" xlink:href="#aV"/><use transform="matrix(0.05,0,0,0.05,55.95,0)" xlink:href="#ay"/><use transform="matrix(0.05,0,0,0.05,60.95,0)" xlink:href="#aw"/></g><g id="E"><use transform="matrix(0.05,0,0,0.05,0,0)" xlink:href="#aZ"/><use transform="matrix(0.05,0,0,0.05,12.950000000000001,0)" xlink:href="#aJ"/><use transform="matrix(0.05,0,0,0.05,22.950000000000003,0)" xlink:href="#ax"/><use transform="matrix(0.05,0,0,0.05,32.95,0)" xlink:href="#ay"/><use transform="matrix(0.05,0,0,0.05,37.95,0)" xlink:href="#az"/><use transform="matrix(0.05,0,0,0.05,47.95,0)" xlink:href="#ax"/><use transform="matrix(0.05,0,0,0.05,57.95,0)" xlink:href="#ay"/><use transform="matrix(0.05,0,0,0.05,62.95,0)" xlink:href="#aw"/></g><g id="F"><use transform="matrix(0.05,0,0,0.05,0,0)" xlink:href="#aI"/><use transform="matrix(0.05,0,0,0.05,10.950000000000001,0)" xlink:href="#az"/><use transform="matrix(0.05,0,0,0.05,20.950000000000003,0)" xlink:href="#aG"/><use transform="matrix(0.05,0,0,0.05,30.950000000000003,0)" xlink:href="#ay"/><use transform="matrix(0.05,0,0,0.05,35.95,0)" xlink:href="#aY"/><use transform="matrix(0.05,0,0,0.05,45.95,0)" xlink:href="#aB"/><use transform="matrix(0.05,0,0,0.05,51.900000000000006,0)" xlink:href="#az"/><use transform="matrix(0.05,0,0,0.05,61.900000000000006,0)" xlink:href="#aM"/><use transform="matrix(0.05,0,0,0.05,71.9,0)" xlink:href="#aW"/><use transform="matrix(0.05,0,0,0.05,81.9,0)" xlink:href="#au"/><use transform="matrix(0.05,0,0,0.05,86.9,0)" xlink:href="#aH"/><use transform="matrix(0.05,0,0,0.05,101.85000000000001,0)" xlink:href="#aG"/><use transform="matrix(0.05,0,0,0.05,111.85000000000001,0)" xlink:href="#aA"/><use transform="matrix(0.05,0,0,0.05,121.85000000000001,0)" xlink:href="#az"/><use transform="matrix(0.05,0,0,0.05,131.85000000000002,0)" xlink:href="#aw"/></g><g id="G"><use transform="matrix(0.05,0,0,0.05,0,0)" xlink:href="#aT"/><use transform="matrix(0.05,0,0,0.05,12.950000000000001,0)" xlink:href="#az"/><use transform="matrix(0.05,0,0,0.05,22.950000000000003,0)" xlink:href="#aG"/><use transform="matrix(0.05,0,0,0.05,32.95,0)" xlink:href="#aM"/><use transform="matrix(0.05,0,0,0.05,42.95,0)" xlink:href="#aE"/><use transform="matrix(0.05,0,0,0.05,46.900000000000006,0)" xlink:href="#ax"/><use transform="matrix(0.05,0,0,0.05,56.900000000000006,0)" xlink:href="#aA"/><use transform="matrix(0.05,0,0,0.05,66.9,0)" xlink:href="#aW"/><use transform="matrix(0.05,0,0,0.05,76.9,0)" xlink:href="#aO"/><use transform="matrix(0.05,0,0,0.05,87.2,0)" xlink:href="#aE"/><use transform="matrix(0.05,0,0,0.05,91.15,0)" xlink:href="#aH"/><use transform="matrix(0.05,0,0,0.05,106.10000000000001,0)" xlink:href="#az"/><use transform="matrix(0.05,0,0,0.05,116.10000000000001,0)" xlink:href="#aw"/></g><g id="H"><use transform="matrix(0.05,0,0,0.05,0,0)" xlink:href="#aD"/><use transform="matrix(0.05,0,0,0.05,12,0)" xlink:href="#aU"/><use transform="matrix(0.05,0,0,0.05,15.949999999999998,0)" xlink:href="#aY"/><use transform="matrix(0.05,0,0,0.05,25.950000000000003,0)" xlink:href="#aA"/><use transform="matrix(0.05,0,0,0.05,35.95,0)" xlink:href="#aw"/></g><g id="I"><use transform="matrix(0.05,0,0,0.05,0,0)" xlink:href="#aZ"/><use transform="matrix(0.05,0,0,0.05,12.950000000000001,0)" xlink:href="#aJ"/><use transform="matrix(0.05,0,0,0.05,22.950000000000003,0)" xlink:href="#aH"/><use transform="matrix(0.05,0,0,0.05,37.900000000000006,0)" xlink:href="#aH"/><use transform="matrix(0.05,0,0,0.05,52.85,0)" xlink:href="#az"/><use transform="matrix(0.05,0,0,0.05,62.85,0)" xlink:href="#ax"/><use transform="matrix(0.05,0,0,0.05,72.85000000000001,0)" xlink:href="#ay"/><use transform="matrix(0.05,0,0,0.05,77.85000000000001,0)" xlink:href="#aW"/><use transform="matrix(0.05,0,0,0.05,87.85000000000001,0)" xlink:href="#aX"/><use transform="matrix(0.05,0,0,0.05,96.85000000000001,0)" xlink:href="#aJ"/><use transform="matrix(0.05,0,0,0.05,106.85000000000001,0)" xlink:href="#aY"/><use transform="matrix(0.05,0,0,0.05,116.85000000000001,0)" xlink:href="#ax"/><use transform="matrix(0.05,0,0,0.05,126.85000000000001,0)" xlink:href="#ay"/><use transform="matrix(0.05,0,0,0.05,131.85000000000002,0)" xlink:href="#aw"/></g><path fill="#333" d="M137 0h-34L2-248h35l83 218 83-218h36" id="bx"/><path fill="#333" d="M206 0h-36l-40-164L89 0H53L-1-190h32L70-26l43-164h34l41 164 42-164h31" id="by"/><g id="J"><use transform="matrix(0.05,0,0,0.05,0,0)" xlink:href="#bx"/><use transform="matrix(0.05,0,0,0.05,11.65,0)" xlink:href="#aE"/><use transform="matrix(0.05,0,0,0.05,15.600000000000001,0)" xlink:href="#az"/><use transform="matrix(0.05,0,0,0.05,25.6,0)" xlink:href="#by"/><use transform="matrix(0.05,0,0,0.05,38.550000000000004,0)" xlink:href="#aW"/><use transform="matrix(0.05,0,0,0.05,48.550000000000004,0)" xlink:href="#aX"/><use transform="matrix(0.05,0,0,0.05,57.550000000000004,0)" xlink:href="#aJ"/><use transform="matrix(0.05,0,0,0.05,67.55000000000001,0)" xlink:href="#aY"/><use transform="matrix(0.05,0,0,0.05,77.55000000000001,0)" xlink:href="#ax"/><use transform="matrix(0.05,0,0,0.05,87.55000000000001,0)" xlink:href="#ay"/><use transform="matrix(0.05,0,0,0.05,92.55000000000001,0)" xlink:href="#aw"/></g><g id="K"><use transform="matrix(0.05,0,0,0.05,0,0)" xlink:href="#aD"/><use transform="matrix(0.05,0,0,0.05,12,0)" xlink:href="#ay"/><use transform="matrix(0.05,0,0,0.05,17,0)" xlink:href="#aG"/><use transform="matrix(0.05,0,0,0.05,27,0)" xlink:href="#ay"/><use transform="matrix(0.05,0,0,0.05,32,0)" xlink:href="#aY"/><use transform="matrix(0.05,0,0,0.05,42,0)" xlink:href="#aQ"/><use transform="matrix(0.05,0,0,0.05,51,0)" xlink:href="#aw"/></g><g id="L"><use transform="matrix(0.05,0,0,0.05,0,0)" xlink:href="#au"/><use transform="matrix(0.05,0,0,0.05,5,0)" xlink:href="#ax"/><use transform="matrix(0.05,0,0,0.05,15,0)" xlink:href="#ay"/><use transform="matrix(0.05,0,0,0.05,20,0)" xlink:href="#az"/><use transform="matrix(0.05,0,0,0.05,30,0)" xlink:href="#aA"/><use transform="matrix(0.05,0,0,0.05,40,0)" xlink:href="#az"/><use transform="matrix(0.05,0,0,0.05,50,0)" xlink:href="#aB"/></g><path fill="#333" d="M24 0v-248h52v208h133V0H24" id="bz"/><path fill="#333" d="M195-6C206 82 75 100 31 46c-4-6-6-13-8-21l49-6c3 16 16 24 34 25 40 0 42-37 40-79-11 22-30 35-61 35-53 0-70-43-70-97 0-56 18-96 73-97 30 0 46 14 59 34l2-30h47zm-90-29c32 0 41-27 41-63 0-35-9-62-40-62-32 0-39 29-40 63 0 36 9 62 39 62" id="bA"/><path fill="#333" d="M135-194c87-1 58 113 63 194h-50c-7-57 23-157-34-157-59 0-34 97-39 157H25l-1-190h47c2 12-1 28 3 38 12-26 28-41 61-42" id="bB"/><g id="M"><use transform="matrix(0.05,0,0,0.05,0,0)" xlink:href="#bz"/><use transform="matrix(0.05,0,0,0.05,10.950000000000001,0)" xlink:href="#bo"/><use transform="matrix(0.05,0,0,0.05,21.900000000000002,0)" xlink:href="#bA"/><use transform="matrix(0.05,0,0,0.05,32.85,0)" xlink:href="#bt"/><use transform="matrix(0.05,0,0,0.05,37.85,0)" xlink:href="#bB"/></g><g id="N"><use transform="matrix(0.05,0,0,0.05,0,0)" xlink:href="#ba"/><use transform="matrix(0.05,0,0,0.05,14.950000000000001,0)" xlink:href="#aG"/><use transform="matrix(0.05,0,0,0.05,24.950000000000003,0)" xlink:href="#aE"/><use transform="matrix(0.05,0,0,0.05,28.900000000000002,0)" xlink:href="#aU"/><use transform="matrix(0.05,0,0,0.05,32.85,0)" xlink:href="#aw"/></g><path fill="#333" d="M30-248c87 1 191-15 191 75 0 78-77 80-158 76V0H30v-248zm33 125c57 0 124 11 124-50 0-59-68-47-124-48v98" id="bC"/><g id="O"><use transform="matrix(0.05,0,0,0.05,0,0)" xlink:href="#bC"/><use transform="matrix(0.05,0,0,0.05,12,0)" xlink:href="#aG"/><use transform="matrix(0.05,0,0,0.05,22,0)" xlink:href="#aQ"/><use transform="matrix(0.05,0,0,0.05,31,0)" xlink:href="#aQ"/><use transform="matrix(0.05,0,0,0.05,40,0)" xlink:href="#by"/><use transform="matrix(0.05,0,0,0.05,52.95,0)" xlink:href="#aJ"/><use transform="matrix(0.05,0,0,0.05,62.95,0)" xlink:href="#aB"/><use transform="matrix(0.05,0,0,0.05,68.9,0)" xlink:href="#aM"/><use transform="matrix(0.05,0,0,0.05,78.9,0)" xlink:href="#aw"/></g><g id="P"><use transform="matrix(0.05,0,0,0.05,0,0)" xlink:href="#aK"/><use transform="matrix(0.05,0,0,0.05,12,0)" xlink:href="#aE"/><use transform="matrix(0.05,0,0,0.05,15.949999999999998,0)" xlink:href="#ax"/><use transform="matrix(0.05,0,0,0.05,25.950000000000003,0)" xlink:href="#aG"/><use transform="matrix(0.05,0,0,0.05,35.95,0)" xlink:href="#aB"/><use transform="matrix(0.05,0,0,0.05,41.900000000000006,0)" xlink:href="#aN"/></g><path d="M80-196l47-18 7 23-49 13 32 44-20 13-27-46-27 45-21-12 33-44-49-13 8-23 47 19-2-53h23" id="bD"/><use transform="matrix(0.05,0,0,0.05,0,0)" xlink:href="#bD" id="Q"/><path d="M27 0v-27h64v-190l-56 39v-29l58-41h29v221h61V0H27" id="bE"/><use transform="matrix(0.05,0,0,0.05,0,0)" xlink:href="#bE" id="R"/><path fill="#333" d="M67-125c0 53 21 87 73 88 37 1 54-22 65-47l45 17C233-25 199 4 140 4 58 4 20-42 15-125 8-235 124-281 211-232c18 10 29 29 36 50l-46 12c-8-25-30-41-62-41-52 0-71 34-72 86" id="bF"/><path fill="#333" d="M220-157c-53 9-28 100-34 157h-49v-107c1-27-5-49-29-50C55-147 81-57 75 0H25l-1-190h47c2 12-1 28 3 38 10-53 101-56 108 0 13-22 24-43 59-42 82 1 51 116 57 194h-49v-107c-1-25-5-48-29-50" id="bG"/><g id="S"><use transform="matrix(0.05,0,0,0.05,0,0)" xlink:href="#bF"/><use transform="matrix(0.05,0,0,0.05,12.950000000000001,0)" xlink:href="#bo"/><use transform="matrix(0.05,0,0,0.05,23.900000000000002,0)" xlink:href="#bG"/><use transform="matrix(0.05,0,0,0.05,39.900000000000006,0)" xlink:href="#bG"/><use transform="matrix(0.05,0,0,0.05,55.900000000000006,0)" xlink:href="#ar"/><use transform="matrix(0.05,0,0,0.05,65.9,0)" xlink:href="#bB"/><use transform="matrix(0.05,0,0,0.05,76.85000000000001,0)" xlink:href="#bs"/></g><g id="T"><use transform="matrix(0.05,0,0,0.05,0,0)" xlink:href="#bC"/><use transform="matrix(0.05,0,0,0.05,12,0)" xlink:href="#aY"/><use transform="matrix(0.05,0,0,0.05,22,0)" xlink:href="#bq"/><use transform="matrix(0.05,0,0,0.05,32,0)" xlink:href="#aU"/><use transform="matrix(0.05,0,0,0.05,35.95,0)" xlink:href="#aE"/><use transform="matrix(0.05,0,0,0.05,39.900000000000006,0)" xlink:href="#aX"/><use transform="matrix(0.05,0,0,0.05,48.900000000000006,0)" xlink:href="#aG"/><use transform="matrix(0.05,0,0,0.05,58.900000000000006,0)" xlink:href="#ay"/><use transform="matrix(0.05,0,0,0.05,63.900000000000006,0)" xlink:href="#aE"/><use transform="matrix(0.05,0,0,0.05,67.85000000000001,0)" xlink:href="#aJ"/><use transform="matrix(0.05,0,0,0.05,77.85000000000001,0)" xlink:href="#ax"/><use transform="matrix(0.05,0,0,0.05,87.85000000000001,0)" xlink:href="#av"/><use transform="matrix(0.05,0,0,0.05,100.80000000000001,0)" xlink:href="#aG"/><use transform="matrix(0.05,0,0,0.05,110.80000000000001,0)" xlink:href="#ay"/><use transform="matrix(0.05,0,0,0.05,115.80000000000001,0)" xlink:href="#az"/><use transform="matrix(0.05,0,0,0.05,125.80000000000001,0)" xlink:href="#aw"/></g><g id="U"><use transform="matrix(0.05,0,0,0.05,0,0)" xlink:href="#av"/><use transform="matrix(0.05,0,0,0.05,12.950000000000001,0)" xlink:href="#aG"/><use transform="matrix(0.05,0,0,0.05,22.950000000000003,0)" xlink:href="#ay"/><use transform="matrix(0.05,0,0,0.05,27.950000000000003,0)" xlink:href="#az"/></g><g id="V"><use transform="matrix(0.05,0,0,0.05,0,0)" xlink:href="#aK"/><use transform="matrix(0.05,0,0,0.05,12,0)" xlink:href="#aJ"/><use transform="matrix(0.05,0,0,0.05,22,0)" xlink:href="#aJ"/><use transform="matrix(0.05,0,0,0.05,32,0)" xlink:href="#aU"/><use transform="matrix(0.05,0,0,0.05,35.95,0)" xlink:href="#az"/><use transform="matrix(0.05,0,0,0.05,45.95,0)" xlink:href="#aG"/><use transform="matrix(0.05,0,0,0.05,55.95,0)" xlink:href="#ax"/></g><g id="W"><use transform="matrix(0.05,0,0,0.05,0,0)" xlink:href="#ba"/><use transform="matrix(0.05,0,0,0.05,14.950000000000001,0)" xlink:href="#aJ"/><use transform="matrix(0.05,0,0,0.05,24.950000000000003,0)" xlink:href="#aM"/><use transform="matrix(0.05,0,0,0.05,34.95,0)" xlink:href="#aE"/><use transform="matrix(0.05,0,0,0.05,38.900000000000006,0)" xlink:href="#bb"/><use transform="matrix(0.05,0,0,0.05,43.900000000000006,0)" xlink:href="#aE"/><use transform="matrix(0.05,0,0,0.05,47.85000000000001,0)" xlink:href="#az"/><use transform="matrix(0.05,0,0,0.05,57.85,0)" xlink:href="#aM"/><use transform="matrix(0.05,0,0,0.05,67.85000000000001,0)" xlink:href="#av"/><use transform="matrix(0.05,0,0,0.05,80.80000000000001,0)" xlink:href="#aG"/><use transform="matrix(0.05,0,0,0.05,90.80000000000001,0)" xlink:href="#ay"/><use transform="matrix(0.05,0,0,0.05,95.80000000000001,0)" xlink:href="#az"/><use transform="matrix(0.05,0,0,0.05,105.80000000000001,0)" xlink:href="#aw"/></g><g id="X"><use transform="matrix(0.05,0,0,0.05,0,0)" xlink:href="#au"/><use transform="matrix(0.05,0,0,0.05,5,0)" xlink:href="#aV"/><use transform="matrix(0.05,0,0,0.05,15,0)" xlink:href="#aW"/><use transform="matrix(0.05,0,0,0.05,25,0)" xlink:href="#aE"/><use transform="matrix(0.05,0,0,0.05,28.950000000000003,0)" xlink:href="#ax"/><use transform="matrix(0.05,0,0,0.05,38.95,0)" xlink:href="#bb"/><use transform="matrix(0.05,0,0,0.05,43.95,0)" xlink:href="#aJ"/><use transform="matrix(0.05,0,0,0.05,53.95,0)" xlink:href="#aw"/></g><g id="Y"><use transform="matrix(0.05,0,0,0.05,0,0)" xlink:href="#bC"/><use transform="matrix(0.05,0,0,0.05,12,0)" xlink:href="#aG"/><use transform="matrix(0.05,0,0,0.05,22,0)" xlink:href="#aB"/><use transform="matrix(0.05,0,0,0.05,27.950000000000003,0)" xlink:href="#az"/><use transform="matrix(0.05,0,0,0.05,37.95,0)" xlink:href="#ax"/><use transform="matrix(0.05,0,0,0.05,47.95,0)" xlink:href="#ay"/><use transform="matrix(0.05,0,0,0.05,52.95,0)" xlink:href="#aw"/></g><path d="M101-251c68 0 85 55 85 127S166 4 100 4C33 4 14-52 14-124c0-73 17-127 87-127zm-1 229c47 0 54-49 54-102s-4-102-53-102c-51 0-55 48-55 102 0 53 5 102 54 102" id="bH"/><path d="M33 0v-38h34V0H33" id="bI"/><g id="Z"><use transform="matrix(0.05,0,0,0.05,0,0)" xlink:href="#bH"/><use transform="matrix(0.05,0,0,0.05,10,0)" xlink:href="#bI"/><use transform="matrix(0.05,0,0,0.05,15,0)" xlink:href="#bI"/><use transform="matrix(0.05,0,0,0.05,20,0)" xlink:href="#bD"/></g><path fill="#333" d="M27 0v-27h64v-190l-56 39v-29l58-41h29v221h61V0H27" id="bJ"/><use transform="matrix(0.05,0,0,0.05,0,0)" xlink:href="#bJ" id="ab"/><g id="ac"><use transform="matrix(0.05,0,0,0.05,0,0)" xlink:href="#bE"/><use transform="matrix(0.05,0,0,0.05,10,0)" xlink:href="#bI"/><use transform="matrix(0.05,0,0,0.05,15,0)" xlink:href="#bI"/><use transform="matrix(0.05,0,0,0.05,20,0)" xlink:href="#bD"/></g><path fill="#333" d="M136-208V0H84v-208H4v-40h212v40h-80" id="bK"/><path fill="#333" d="M133-34C117-15 103 5 69 4 32 3 11-16 11-54c-1-60 55-63 116-61 1-26-3-47-28-47-18 1-26 9-28 27l-52-2c7-38 36-58 82-57s74 22 75 68l1 82c-1 14 12 18 25 15v27c-30 8-71 5-69-32zm-48 3c29 0 43-24 42-57-32 0-66-3-65 30 0 17 8 27 23 27" id="bL"/><g id="ad"><use transform="matrix(0.05,0,0,0.05,0,0)" xlink:href="#bK"/><use transform="matrix(0.05,0,0,0.05,9.600000000000001,0)" xlink:href="#bL"/><use transform="matrix(0.05,0,0,0.05,19.6,0)" xlink:href="#bA"/></g><g id="ae"><use transform="matrix(0.05,0,0,0.05,0,0)" xlink:href="#aP"/><use transform="matrix(0.05,0,0,0.05,10,0)" xlink:href="#aG"/><use transform="matrix(0.05,0,0,0.05,20,0)" xlink:href="#bq"/><use transform="matrix(0.05,0,0,0.05,30,0)" xlink:href="#az"/><use transform="matrix(0.05,0,0,0.05,40,0)" xlink:href="#aU"/><use transform="matrix(0.05,0,0,0.05,43.95,0)" xlink:href="#aw"/></g><g id="af"><use transform="matrix(0.05,0,0,0.05,0,0)" xlink:href="#aR"/><use transform="matrix(0.05,0,0,0.05,12,0)" xlink:href="#aB"/><use transform="matrix(0.05,0,0,0.05,17.95,0)" xlink:href="#ay"/><use transform="matrix(0.05,0,0,0.05,22.95,0)" xlink:href="#aE"/><use transform="matrix(0.05,0,0,0.05,26.899999999999995,0)" xlink:href="#aX"/><use transform="matrix(0.05,0,0,0.05,35.9,0)" xlink:href="#aU"/><use transform="matrix(0.05,0,0,0.05,39.85,0)" xlink:href="#az"/><use transform="matrix(0.05,0,0,0.05,49.85,0)" xlink:href="#aW"/><use transform="matrix(0.05,0,0,0.05,59.85,0)" xlink:href="#aX"/><use transform="matrix(0.05,0,0,0.05,68.85,0)" xlink:href="#aJ"/><use transform="matrix(0.05,0,0,0.05,78.85,0)" xlink:href="#aY"/><use transform="matrix(0.05,0,0,0.05,88.85,0)" xlink:href="#ax"/><use transform="matrix(0.05,0,0,0.05,98.85,0)" xlink:href="#ay"/><use transform="matrix(0.05,0,0,0.05,103.84999999999998,0)" xlink:href="#aw"/></g><g id="ag"><use transform="matrix(0.05,0,0,0.05,0,0)" xlink:href="#au"/><use transform="matrix(0.05,0,0,0.05,5,0)" xlink:href="#aF"/><use transform="matrix(0.05,0,0,0.05,17.950000000000003,0)" xlink:href="#aO"/></g><g id="ah"><use transform="matrix(0.05,0,0,0.05,0,0)" xlink:href="#aR"/><use transform="matrix(0.05,0,0,0.05,12,0)" xlink:href="#aY"/><use transform="matrix(0.05,0,0,0.05,22,0)" xlink:href="#ay"/><use transform="matrix(0.05,0,0,0.05,27,0)" xlink:href="#aL"/><use transform="matrix(0.05,0,0,0.05,37,0)" xlink:href="#aJ"/><use transform="matrix(0.05,0,0,0.05,47,0)" xlink:href="#aB"/></g><path fill="#333" d="M135-194c53 0 70 44 70 98 0 56-19 98-73 100-31 1-45-17-59-34 3 33 2 69 2 105H25l-1-265h48c2 10 0 23 3 31 11-24 29-35 60-35zM114-30c33 0 39-31 40-66 0-38-9-64-40-64-56 0-55 130 0 130" id="bM"/><path fill="#333" d="M128 0H69L1-190h53L99-40l48-150h52" id="bN"/><g id="ai"><use transform="matrix(0.05,0,0,0.05,0,0)" xlink:href="#bM"/><use transform="matrix(0.05,0,0,0.05,10.950000000000001,0)" xlink:href="#as"/><use transform="matrix(0.05,0,0,0.05,17.950000000000003,0)" xlink:href="#bt"/><use transform="matrix(0.05,0,0,0.05,22.950000000000003,0)" xlink:href="#bN"/><use transform="matrix(0.05,0,0,0.05,32.95,0)" xlink:href="#bt"/><use transform="matrix(0.05,0,0,0.05,37.95,0)" xlink:href="#bp"/><use transform="matrix(0.05,0,0,0.05,42.95,0)" xlink:href="#ar"/><use transform="matrix(0.05,0,0,0.05,52.95,0)" xlink:href="#bA"/><use transform="matrix(0.05,0,0,0.05,63.900000000000006,0)" xlink:href="#ar"/><use transform="matrix(0.05,0,0,0.05,73.9,0)" xlink:href="#aq"/></g><g id="aj"><use transform="matrix(0.05,0,0,0.05,0,0)" xlink:href="#aR"/><use transform="matrix(0.05,0,0,0.05,12,0)" xlink:href="#aX"/><use transform="matrix(0.05,0,0,0.05,21,0)" xlink:href="#ay"/><use transform="matrix(0.05,0,0,0.05,26,0)" xlink:href="#aE"/><use transform="matrix(0.05,0,0,0.05,29.950000000000003,0)" xlink:href="#aJ"/><use transform="matrix(0.05,0,0,0.05,39.95,0)" xlink:href="#ax"/><use transform="matrix(0.05,0,0,0.05,49.95,0)" xlink:href="#aw"/></g><g id="ak"><use transform="matrix(0.05,0,0,0.05,0,0)" xlink:href="#bx"/><use transform="matrix(0.05,0,0,0.05,10.65,0)" xlink:href="#aG"/><use transform="matrix(0.05,0,0,0.05,20.65,0)" xlink:href="#aU"/><use transform="matrix(0.05,0,0,0.05,24.599999999999998,0)" xlink:href="#aY"/><use transform="matrix(0.05,0,0,0.05,34.599999999999994,0)" xlink:href="#az"/><use transform="matrix(0.05,0,0,0.05,44.599999999999994,0)" xlink:href="#aw"/></g><g id="al"><use transform="matrix(0.05,0,0,0.05,0,0)" xlink:href="#aK"/><use transform="matrix(0.05,0,0,0.05,12,0)" xlink:href="#aJ"/><use transform="matrix(0.05,0,0,0.05,22,0)" xlink:href="#aJ"/><use transform="matrix(0.05,0,0,0.05,32,0)" xlink:href="#aU"/><use transform="matrix(0.05,0,0,0.05,35.95,0)" xlink:href="#az"/><use transform="matrix(0.05,0,0,0.05,45.95,0)" xlink:href="#aG"/><use transform="matrix(0.05,0,0,0.05,55.95,0)" xlink:href="#ax"/></g><path fill="#333" d="M114-157C55-157 80-60 75 0H25v-261h50l-1 109c12-26 28-41 61-42 86-1 58 113 63 194h-50c-7-57 23-157-34-157" id="bO"/><g id="am"><use transform="matrix(0.05,0,0,0.05,0,0)" xlink:href="#bK"/><use transform="matrix(0.05,0,0,0.05,10.950000000000001,0)" xlink:href="#bO"/><use transform="matrix(0.05,0,0,0.05,21.900000000000002,0)" xlink:href="#ar"/><use transform="matrix(0.05,0,0,0.05,31.900000000000002,0)" xlink:href="#bG"/><use transform="matrix(0.05,0,0,0.05,47.900000000000006,0)" xlink:href="#bL"/><use transform="matrix(0.05,0,0,0.05,57.900000000000006,0)" xlink:href="#bs"/><use transform="matrix(0.05,0,0,0.05,63.85,0)" xlink:href="#bt"/><use transform="matrix(0.05,0,0,0.05,68.85000000000001,0)" xlink:href="#bu"/><use transform="matrix(0.05,0,0,0.05,78.85000000000001,0)" xlink:href="#aq"/></g><g id="an"><use transform="matrix(0.05,0,0,0.05,0,0)" xlink:href="#av"/><use transform="matrix(0.05,0,0,0.05,12.950000000000001,0)" xlink:href="#az"/><use transform="matrix(0.05,0,0,0.05,22.950000000000003,0)" xlink:href="#aQ"/><use transform="matrix(0.05,0,0,0.05,31.950000000000003,0)" xlink:href="#aX"/><use transform="matrix(0.05,0,0,0.05,40.95,0)" xlink:href="#aB"/><use transform="matrix(0.05,0,0,0.05,46.900000000000006,0)" xlink:href="#aE"/><use transform="matrix(0.05,0,0,0.05,50.85000000000001,0)" xlink:href="#aV"/><use transform="matrix(0.05,0,0,0.05,60.85,0)" xlink:href="#ay"/><use transform="matrix(0.05,0,0,0.05,65.85000000000001,0)" xlink:href="#aE"/><use transform="matrix(0.05,0,0,0.05,69.80000000000001,0)" xlink:href="#aJ"/><use transform="matrix(0.05,0,0,0.05,79.80000000000001,0)" xlink:href="#ax"/><use transform="matrix(0.05,0,0,0.05,89.80000000000001,0)" xlink:href="#aw"/></g><path fill="#333" d="M169-182c-1-43-94-46-97-3 18 66 151 10 154 114 3 95-165 93-204 36-6-8-10-19-12-30l50-8c3 46 112 56 116 5-17-69-150-10-154-114-4-87 153-88 188-35 5 8 8 18 10 28" id="bP"/><path fill="#333" d="M85 4C-2 5 27-109 22-190h50c7 57-23 150 33 157 60-5 35-97 40-157h50l1 190h-47c-2-12 1-28-3-38-12 25-28 42-61 42" id="bQ"/><g id="ao"><use transform="matrix(0.05,0,0,0.05,0,0)" xlink:href="#bP"/><use transform="matrix(0.05,0,0,0.05,12,0)" xlink:href="#bs"/><use transform="matrix(0.05,0,0,0.05,17.95,0)" xlink:href="#bL"/><use transform="matrix(0.05,0,0,0.05,27.950000000000003,0)" xlink:href="#bs"/><use transform="matrix(0.05,0,0,0.05,33.9,0)" xlink:href="#bQ"/><use transform="matrix(0.05,0,0,0.05,44.85,0)" xlink:href="#aq"/></g></defs></g></svg>